<svg xmlns="http://www.w3.org/2000/svg" aria-hidden="true" focusable="false" data-prefix="fas" data-icon="code" role="img" width="640" height="512" style=""><rect id="backgroundrect" width="100%" height="100%" x="0" y="0" fill="none" stroke="none"/><g class="currentLayer" style=""><title>Layer 1</title><path fill="currentColor" d="M306.1401422653528,353.3696505611224 l-20.570598624228683,-6.7458459158738036 c-2.158226740902682,-0.6860182287329292 -3.37222928266044,-3.239530524572165 -2.7652280117815606,-5.678706448955913 L328.8352453376575,161.74189200172424 c0.60700127087888,-2.439175924383748 2.8663948902613736,-3.8112123818496055 5.024621631164056,-3.1251941531166767 l20.570598624228683,6.7458459158738036 c2.158226740902682,0.6860182287329292 3.37222928266044,3.239530524572165 2.7652280117815606,5.678706448955913 L311.1647638965168,350.24445640800576 c-0.6407235637054838,2.439175924383748 -2.8663948902613736,3.8493245056681022 -5.024621631164056,3.1251941531166767 zm-38.44341382232901,-42.76180292435258 l14.669197379572912,-17.684025451782173 c1.5512254700238026,-1.867494067106307 1.4500585915439888,-4.840239724948999 -0.26977834261283545,-6.555285296781322 L251.54375017908023,255.99317420486497 l30.552397300903582,-30.375362683341358 c1.719836934156824,-1.7150455718323225 1.8547261054632418,-4.687791229675017 0.26977834261283545,-6.555285296781322 l-14.669197379572912,-17.684025451782173 c-1.5175031771971979,-1.8293819432878111 -4.080397432019131,-1.943718314743299 -5.732789780522747,-0.19056061909248054 L213.37011469936408,252.63930730883732 c-1.719836934156824,1.7912698194693146 -1.719836934156824,4.878351848767496 0,6.669621668236812 l48.593823963136934,51.48947927878817 c1.6523923485036156,1.7531576956508186 4.215286603325549,1.676933448013827 5.732789780522747,-0.19056061909248054 zm110.33934212864959,0.22867274291097692 l48.593823963136934,-51.48947927878817 c1.719836934156824,-1.7912698194693146 1.719836934156824,-4.878351848767496 0,-6.669621668236812 L378.0360705716734,201.14982803004915 c-1.6186700556770115,-1.7150455718323225 -4.1815643104989455,-1.6388213241953307 -5.732789780522747,0.19056061909248054 L357.63408341157765,219.0244141009238 c-1.5512254700238026,1.867494067106307 -1.4500585915439888,4.840239724948999 0.26977834261283545,6.555285296781322 L388.4562590550941,255.99317420486497 l-30.552397300903582,30.375362683341358 c-1.719836934156824,1.7150455718323225 -1.8547261054632418,4.687791229675017 -0.26977834261283545,6.555285296781322 l14.669197379572912,17.684025451782173 c1.5175031771971979,1.867494067106307 4.080397432019131,1.943718314743299 5.732789780522747,0.22867274291097692 z" id="svg_1" class="selected" stroke-width="1"/></g></svg>